<svg width="731" height="191" viewBox="0 0 731 191" fill="none" xmlns="http://www.w3.org/2000/svg">
<path d="M0.394498 127.715C33.3791 127.715 74.2724 166.905 90.596 186.5V119.645C73.687 89.7577 23.4162 71.7619 0.394498 66.5C0.0968028 86.9051 -0.319977 127.715 0.394498 127.715Z" fill="#058EFF"/>
<path d="M179.605 65.2848C146.621 65.2848 105.728 26.0949 89.404 6.5V73.3545C106.313 103.242 156.584 121.238 179.605 126.5C179.903 106.095 180.32 65.2848 179.605 65.2848Z" fill="#058EFF"/>
<path d="M341.029 51.1364L290.602 187.5H269.296L218.869 51.1364H241.597L279.239 159.801H280.659L318.301 51.1364H341.029Z" fill="#058EFF"/>
<path d="M420.973 190.341C407.834 190.341 396.5 187.441 386.971 181.641C377.502 175.781 370.192 167.614 365.043 157.138C359.953 146.603 357.408 134.351 357.408 120.384C357.408 106.416 359.953 94.1051 365.043 83.4517C370.192 72.7391 377.354 64.3939 386.527 58.4162C395.76 52.3793 406.532 49.3608 418.843 49.3608C425.945 49.3608 432.959 50.5445 439.883 52.9119C446.808 55.2794 453.111 59.1264 458.793 64.4531C464.475 69.7206 469.003 76.7045 472.376 85.4048C475.75 94.1051 477.437 104.818 477.437 117.543V126.42H372.323V108.31H456.13C456.13 100.616 454.591 93.75 451.513 87.7131C448.495 81.6761 444.174 76.9117 438.552 73.4197C432.988 69.9278 426.419 68.1818 418.843 68.1818C410.498 68.1818 403.277 70.2533 397.181 74.3963C391.144 78.4801 386.498 83.8068 383.243 90.3764C379.987 96.946 378.36 103.989 378.36 111.506V123.58C378.36 133.878 380.135 142.608 383.687 149.769C387.297 156.871 392.298 162.287 398.69 166.016C405.082 169.685 412.51 171.52 420.973 171.52C426.478 171.52 431.449 170.75 435.888 169.212C440.386 167.614 444.263 165.246 447.518 162.109C450.773 158.913 453.289 154.948 455.064 150.213L475.306 155.895C473.175 162.76 469.594 168.797 464.564 174.006C459.533 179.155 453.318 183.179 445.92 186.08C438.522 188.92 430.206 190.341 420.973 190.341Z" fill="#058EFF"/>
<path d="M530.26 5.68181V187.5H509.308V5.68181H530.26Z" fill="#058EFF"/>
<path d="M568.634 187.5V51.1364H589.586V187.5H568.634ZM579.288 28.4091C575.204 28.4091 571.682 27.0182 568.723 24.2365C565.823 21.4548 564.373 18.1108 564.373 14.2045C564.373 10.2983 565.823 6.95431 568.723 4.17258C571.682 1.39086 575.204 0 579.288 0C583.371 0 586.863 1.39086 589.763 4.17258C592.723 6.95431 594.202 10.2983 594.202 14.2045C594.202 18.1108 592.723 21.4548 589.763 24.2365C586.863 27.0182 583.371 28.4091 579.288 28.4091Z" fill="#058EFF"/>
<path d="M668.088 190.696C659.447 190.696 651.605 189.068 644.562 185.813C637.519 182.499 631.926 177.734 627.783 171.52C623.64 165.246 621.568 157.67 621.568 148.793C621.568 140.98 623.107 134.647 626.185 129.794C629.262 124.882 633.376 121.035 638.525 118.253C643.674 115.471 649.356 113.4 655.57 112.038C661.844 110.618 668.147 109.493 674.48 108.665C682.766 107.599 689.484 106.8 694.633 106.268C699.841 105.676 703.629 104.699 705.997 103.338C708.423 101.977 709.636 99.6094 709.636 96.2358V95.5256C709.636 86.7661 707.239 79.9597 702.445 75.1065C697.711 70.2533 690.52 67.8267 680.872 67.8267C670.87 67.8267 663.028 70.0166 657.346 74.3963C651.664 78.776 647.669 83.4517 645.361 88.4233L625.475 81.321C629.026 73.035 633.76 66.5838 639.679 61.9673C645.657 57.2917 652.167 54.0365 659.21 52.2017C666.313 50.3078 673.297 49.3608 680.162 49.3608C684.542 49.3608 689.573 49.8935 695.254 50.9588C700.995 51.965 706.529 54.066 711.856 57.2621C717.242 60.4581 721.71 65.2817 725.261 71.733C728.813 78.1842 730.588 86.8253 730.588 97.6562V187.5H709.636V169.034H708.571C707.151 171.993 704.783 175.16 701.469 178.533C698.154 181.907 693.745 184.777 688.241 187.145C682.737 189.512 676.019 190.696 668.088 190.696ZM671.284 171.875C679.57 171.875 686.554 170.247 692.236 166.992C697.977 163.737 702.297 159.535 705.198 154.386C708.157 149.236 709.636 143.821 709.636 138.139V118.963C708.749 120.028 706.796 121.005 703.777 121.893C700.818 122.721 697.385 123.461 693.479 124.112C689.632 124.704 685.873 125.237 682.204 125.71C678.594 126.125 675.664 126.48 673.415 126.776C667.97 127.486 662.88 128.64 658.145 130.238C653.469 131.777 649.681 134.115 646.781 137.251C643.94 140.329 642.52 144.531 642.52 149.858C642.52 157.138 645.213 162.642 650.599 166.371C656.044 170.04 662.939 171.875 671.284 171.875Z" fill="#058EFF"/>
</svg>
