<svg width="512" height="191" viewBox="0 0 512 191" fill="none" xmlns="http://www.w3.org/2000/svg">
<path d="M122.159 51.1364L71.733 187.5H50.4261L0 51.1364H22.7273L60.3693 159.801H61.7898L99.4318 51.1364H122.159Z" fill="#058EFF"/>
<path d="M202.104 190.341C188.965 190.341 177.631 187.441 168.102 181.641C158.632 175.781 151.323 167.614 146.174 157.138C141.084 146.603 138.539 134.351 138.539 120.384C138.539 106.416 141.084 94.1051 146.174 83.4517C151.323 72.7391 158.484 64.3939 167.658 58.4162C176.891 52.3793 187.663 49.3608 199.973 49.3608C207.076 49.3608 214.089 50.5445 221.014 52.9119C227.939 55.2793 234.242 59.1264 239.924 64.4531C245.605 69.7206 250.133 76.7045 253.507 85.4048C256.88 94.1051 258.567 104.818 258.567 117.543V126.42H153.453V108.31H237.26C237.26 100.616 235.721 93.75 232.644 87.7131C229.625 81.6761 225.305 76.9117 219.682 73.4197C214.119 69.9278 207.549 68.1818 199.973 68.1818C191.628 68.1818 184.408 70.2533 178.311 74.3963C172.275 78.4801 167.628 83.8068 164.373 90.3764C161.118 96.946 159.49 103.989 159.49 111.506V123.58C159.49 133.878 161.266 142.608 164.817 149.769C168.427 156.871 173.429 162.287 179.821 166.016C186.213 169.685 193.641 171.52 202.104 171.52C207.608 171.52 212.58 170.75 217.019 169.212C221.517 167.614 225.394 165.246 228.649 162.109C231.904 158.913 234.419 154.948 236.195 150.213L256.436 155.895C254.306 162.76 250.725 168.797 245.694 174.006C240.663 179.155 234.449 183.179 227.051 186.08C219.653 188.92 211.337 190.341 202.104 190.341Z" fill="#058EFF"/>
<path d="M311.39 5.68181V187.5H290.439V5.68181H311.39Z" fill="#058EFF"/>
<path d="M349.765 187.5V51.1364H370.716V187.5H349.765ZM360.418 28.4091C356.334 28.4091 352.813 27.0182 349.854 24.2365C346.953 21.4548 345.503 18.1108 345.503 14.2045C345.503 10.2983 346.953 6.95431 349.854 4.17258C352.813 1.39086 356.334 0 360.418 0C364.502 0 367.994 1.39086 370.894 4.17258C373.853 6.95431 375.333 10.2983 375.333 14.2045C375.333 18.1108 373.853 21.4548 370.894 24.2365C367.994 27.0182 364.502 28.4091 360.418 28.4091Z" fill="#058EFF"/>
<path d="M449.219 190.696C440.578 190.696 432.736 189.068 425.693 185.813C418.649 182.499 413.056 177.734 408.913 171.52C404.77 165.246 402.699 157.67 402.699 148.793C402.699 140.98 404.238 134.647 407.315 129.794C410.393 124.882 414.506 121.035 419.656 118.253C424.805 115.471 430.486 113.4 436.701 112.038C442.975 110.618 449.278 109.493 455.611 108.665C463.897 107.599 470.614 106.8 475.764 106.268C480.972 105.676 484.76 104.699 487.127 103.338C489.554 101.977 490.767 99.6094 490.767 96.2358V95.5256C490.767 86.7661 488.37 79.9597 483.576 75.1065C478.841 70.2533 471.65 67.8267 462.003 67.8267C452.001 67.8267 444.158 70.0166 438.477 74.3963C432.795 78.776 428.8 83.4517 426.492 88.4233L406.605 81.321C410.156 73.035 414.891 66.5838 420.81 61.9673C426.787 57.2917 433.298 54.0365 440.341 52.2017C447.443 50.3078 454.427 49.3608 461.293 49.3608C465.672 49.3608 470.703 49.8935 476.385 50.9588C482.126 51.965 487.66 54.066 492.987 57.2621C498.372 60.4581 502.841 65.2817 506.392 71.733C509.943 78.1842 511.719 86.8253 511.719 97.6562V187.5H490.767V169.034H489.702C488.281 171.993 485.914 175.16 482.599 178.533C479.285 181.907 474.876 184.777 469.371 187.145C463.867 189.512 457.15 190.696 449.219 190.696ZM452.415 171.875C460.701 171.875 467.685 170.247 473.367 166.992C479.108 163.737 483.428 159.535 486.328 154.386C489.287 149.237 490.767 143.821 490.767 138.139V118.963C489.879 120.028 487.926 121.005 484.908 121.893C481.948 122.721 478.516 123.461 474.609 124.112C470.762 124.704 467.004 125.237 463.335 125.71C459.724 126.125 456.795 126.48 454.545 126.776C449.1 127.486 444.01 128.64 439.276 130.238C434.6 131.777 430.812 134.115 427.912 137.251C425.071 140.329 423.651 144.531 423.651 149.858C423.651 157.138 426.344 162.642 431.729 166.371C437.175 170.04 444.07 171.875 452.415 171.875Z" fill="#058EFF"/>
</svg>
